<?xml version="1.0" encoding="utf-8"?>
<!-- Generator: Adobe Illustrator 21.0.1, SVG Export Plug-In . SVG Version: 6.00 Build 0)  -->
<svg version="1.1" id="Layer_1" xmlns="http://www.w3.org/2000/svg" xmlns:xlink="http://www.w3.org/1999/xlink" x="0px" y="0px"
	 viewBox="0 0 600 600" style="enable-background:new 0 0 600 600;" xml:space="preserve">
<style type="text/css">
	.st0{fill:#FFFFFF;}
</style>
<g>
	<g>
		<path d="M272-19c17.7,0,35.3,0,53,0c1.5,0.4,3.1,0.9,4.6,1.1c9.2,0.9,18.6,1,27.7,2.8c12.8,2.5,25.4,6.1,38,9.4
			c32.4,8.6,62.2,23.7,89.4,42.5c23.4,16.2,44.7,35.4,62.8,58.1c23.9,30.1,44.6,61.8,56.8,98.6c8.2,24.7,16.2,49.4,15.7,75.9
			c0,0.9,0.7,1.7,1,2.6c0,20.7,0,41.3,0,62c-0.4,1.2-0.9,2.4-1.1,3.6c-1.1,8.7-1.5,17.5-3.2,26.1c-12,63.1-41.2,117.1-85.7,163.1
			c-26.5,27.4-56.9,49.5-91.4,65.7c-37.2,17.5-76.1,28-117.6,27.3c-2,0-4.1,0.7-6.1,1c-20,0-40,0-60,0c-0.7-0.4-1.3-0.9-2-1.1
			c-11.1-2.4-22.5-3.9-33.3-7.4c-19.8-6.3-40.1-12.1-58.7-21.2c-53.3-26.1-96.9-63.9-129-114.3c-13.8-21.7-27.5-43.3-34.6-68.5
			c-6.6-23.3-14-46.2-15.4-70.6c-0.3-4.7-1.3-9.3-1.9-14c0-15,0-30,0-45c0.4-1.4,1-2.7,1.1-4.1c0.9-20.4,4.6-40.4,10.2-60
			C6,167,28.3,123.7,62.6,87.3c11.9-12.7,24.8-24.6,38-35.9c28.8-24.6,61.4-43,97.7-53.9c20-6,40.7-9.8,61.1-14.5
			C263.6-17.9,267.8-18.3,272-19z M382.9,450.1c22,0,44-0.1,66,0.1c4.1,0,6.8-1.2,8.2-4.8c2.8-7.1,6.2-14,8-21.3
			c4.4-19.1,8.7-38.4,11.9-57.7c2.4-14.5,3.2-29.3,4.1-44c0.5-8.9-1.5-10.4-10.2-10.5c-0.3,0-0.7,0-1,0c-49,0.3-97.9,0.6-146.9,0.9
			c-9.6,0.1-9.6,0-10.3,9.4c-0.1,2-0.7,3.9-0.7,5.9c-0.7,18.8-1.6,37.5-1.9,56.3c-0.3,18.2-0.2,36.3-0.1,54.5c0,2.1,0.7,4.2,0.8,6.4
			c0.1,4.3,2.5,4.9,6.3,4.9C338.9,450.1,360.9,450.1,382.9,450.1z M284.2,313.1c-1.9-0.1-2.8-0.3-3.8-0.3
			c-24.8-0.3-49.6-0.8-74.4-0.8c-22,0-43.9,0.5-65.9,0.8c-5,0.1-10,0-15,0.2c-5.4,0.2-7.1,1.9-7.2,7.4c-0.1,3.6,0.3,7.3,0.8,10.9
			c3,23,5.3,46,9.4,68.8c2.6,14.5,7.8,28.6,11.9,42.9c1.8,6.3,6.3,8.6,12.8,8.5c7.3-0.2,14.6,0.7,21.9,0.7
			c34.3,0.1,68.6,0.1,102.9,0c1.3,0,3.5-1.5,3.8-2.7c1.2-5.1,2.5-10.4,2.6-15.6c0.2-34.1,0.2-68.3,0.2-102.4
			C284.2,325.4,284.2,319.5,284.2,313.1z M313.1,157c-0.4,9.7-1.1,19.1-1.2,28.6c-0.2,30.3,0,60.7-0.3,91c0,5.1,2.2,6.4,6.4,6.6
			c15.1,0.7,30.2,1.9,45.3,1.9c34,0,67.9-0.5,101.9-0.9c13.3-0.2,16.3-3.7,14.8-16.4c-1.6-13.5-2.9-27-4.9-40.4
			c-3.3-22.4-7.6-44.6-15.8-65.9c-1.4-3.5-2.9-4.7-6.7-4.6c-44.8,0.1-89.6,0.1-134.5,0.1C316.6,156.8,314.9,156.9,313.1,157z
			 M203.5,284.2C203.5,284.2,203.5,284.2,203.5,284.2c25.1-0.1,50.3-0.1,75.4,0c3.1,0,5.3,0,5.3-4.3c0.1-16.1,0.7-32.3,0.8-48.4
			c0.2-18.8,0.1-37.6,0.1-56.5c0-4.3-0.7-8.6-0.6-12.9c0.1-4.2-2.6-5-5.7-5.2c-5.8-0.4-11.6-1-17.4-1c-37.6,0.2-75.2,0.7-112.8,0.8
			c-4.8,0-7.5,1.7-9.1,6c-0.6,1.5-1.3,3-1.9,4.6c-8.4,22.9-12.6,46.9-15.9,70.9c-1.6,11.3-2.1,22.8-3.5,34.1
			c-1.2,9.8,0,11.6,9.7,11.9c0.7,0,1.3,0,2,0C154.5,284.2,179,284.2,203.5,284.2z M487,450.1c19.3,0,37.1-0.3,54.8,0.1
			c12.7,0.3,19.6-6.9,24.9-17.1c0.8-1.6,1.7-3.2,2.5-4.8c9.9-20.5,16.5-42.2,20.8-64.4c3-15.2,4.3-30.7,6.1-46.2
			c0.5-4.1-0.9-7.1-6-7.1c-24.4,0.2-48.8,0.1-73.2,0.3c-4.7,0-7.6,2.6-8.2,7.6c-1.9,16.6-3.8,33.2-5.9,49.8
			c-2.8,21.6-5.9,43.2-12.9,64C488.2,437.7,488,443.6,487,450.1z M287.1,60.5C287.2,60.5,287.2,60.5,287.1,60.5
			c0.1-15.2,0.2-30.3,0-45.5c0-1.7-1.5-4.6-2.7-4.8c-4.3-0.7-9-1.5-13.1-0.5c-15,3.8-28.8,10.8-41.5,19.7
			c-16.9,11.8-31.7,26-44.1,42.3c-11.9,15.6-22.5,32-29.9,50.3c-2.4,5.9-1.4,7.1,4.8,7.2c16.8,0.1,33.6,0.4,50.3,0.1
			c23.1-0.4,46.2-1.4,69.3-2.1c3.2-0.1,5.1-1.1,5.3-4.5c0.5-6.6,1.5-13.2,1.6-19.8C287.3,88.8,287.1,74.6,287.1,60.5z M51.5,311.3
			c0,0.5,0,1,0,1.4c-11,0-21.9-0.1-32.9,0c-9,0.1-11.1,1.8-10.7,10.8c0.5,9.7,1.2,19.6,3,29.1c5.7,29.6,14.2,58.4,28.6,85.2
			c5.4,10.1,13.1,14.4,24,14.3c13.3-0.2,26.6-0.4,39.9-0.9c10-0.4,10.6-1.5,7.7-11c-0.1-0.5-0.4-0.9-0.5-1.4
			c-8.1-27.2-12.7-55-16.4-83c-1.6-12-2.7-24-4.1-36c-0.5-4.7-2.9-7-7.8-7.2C72.1,312.4,61.8,311.8,51.5,311.3z M375.1,476.9
			C375.1,476.8,375.1,476.8,375.1,476.9c-13-0.1-26-0.2-39,0c-6,0.1-11.9,0.8-17.9,1c-5.1,0.2-7.3,2.7-7.4,7.6
			c-0.2,5-0.9,9.9-0.9,14.9c-0.1,29.1-0.1,58.2-0.1,87.3c0,6,1,7,7.2,6.6c15.5-1.1,29.8-6.2,42.9-14.2c25.9-15.7,46.3-37.2,63-62.2
			c7.1-10.7,12.5-22.5,18.5-33.9c1.6-3.1,0.8-4.9-3.1-5.2c-6.9-0.4-13.9-1.6-20.8-1.7C403.4,476.7,389.3,476.9,375.1,476.9z
			 M552.9,285.9c0-0.6,0-1.1,0-1.7c10.5,0,20.9,0.1,31.4-0.1c2.3,0,4.6-0.5,6.8-1.1c3.7-1.1,4.3-4.1,4.2-7.5
			c-0.6-22.1-6.1-43.2-12.7-64c-5.5-17.3-11.7-34.4-21.3-50.1c-2.5-4.1-5.6-7.7-10.8-7.5c-19.4,0.6-38.8,1.1-58.2,2.1
			c-5.8,0.3-7,2.9-5.3,8.3c2.8,9.3,6,18.5,8.1,28c4.6,21.3,9.7,42.6,9.9,64.6c0.1,6.9,1.8,13.7,2.7,20.6c0.5,3.8,2.9,5.4,6.5,5.6
			C527.1,284.1,540,285,552.9,285.9z M444.7,127c-0.9-2.4-1.3-4.2-2.1-5.7c-15.3-32.3-34.9-61.5-63-84.1
			C364.2,24.8,347,15.4,328.1,9.7c-9.2-2.8-12.8-0.2-13.2,9.5c-0.8,16.4-1.6,32.9-2,49.3c-0.3,16.8-0.1,33.6-0.1,50.5
			c0,4.9,1,8.4,6.9,8.6c10.3,0.3,20.5,1.5,30.8,1.5c27.5,0,54.9-0.5,82.4-0.9C436.5,128.1,440.1,127.5,444.7,127z M78.6,155.3
			c0,0.2,0,0.3,0,0.5c-4.5,0-9.1,0.5-13.5-0.1c-15.4-1.9-24.6,5.2-30.5,18.9c-10.6,25-20.2,50.3-24.5,77.2
			c-1.5,9.4-0.7,19.2-0.2,28.7c0.1,1.9,3.1,4.2,5.2,5.5c1.9,1.1,4.5,1.1,6.8,1.1c19.1-0.2,38.3-0.4,57.4-1.1
			c9-0.3,10.5-1.8,11.9-10.2c1.2-7.5,1.2-15.2,2.2-22.7c2-14.7,3.9-29.5,6.9-44.1c3.1-15.3,7.1-30.5,11.2-45.6
			c1.2-4.5-0.5-6.2-4.1-6.5C97.9,156.2,88.3,155.8,78.6,155.3z M281.5,590.9c0.2-4.7,0.5-9.1,0.6-13.6c0.2-12.3,0.3-24.6,0.3-37
			c0-19.4-0.1-38.9-0.3-58.3c0-3.3-2.2-5-5.5-5.2c-1.7-0.1-3.3,0-5,0c-28.8,0.6-57.5,1.3-86.3,2c-8.1,0.2-16.3,0.6-24.4,1
			c-5.6,0.3-7,3.6-3.8,8.3c2.4,3.6,4.7,7.2,7,10.9c7.1,11,13.6,22.4,21.5,32.8c15.9,20.8,34.8,38.4,57.7,51.4
			C255,589.7,267.1,594.5,281.5,590.9z M538.8,126.9C523.2,104.2,504.2,86.1,484,69c-20.4-17.2-44.1-28.5-68-39.8
			c1,3.3,2.4,6.1,4.2,8.7c11.1,15.9,22.6,31.6,33.2,47.8c8,12.3,14.7,25.5,22.5,38.1c1.4,2.2,5,4.2,7.6,4.2
			c15.6,0.4,31.3,0.2,46.9,0.1C532.8,128.1,535.2,127.4,538.8,126.9z M414.1,573.7c0.3,0.4,0.5,0.8,0.8,1.2c1.1-0.1,2.4,0,3.4-0.5
			c5.6-2.7,11.2-5.5,16.8-8.3c33.4-17,61.7-40.7,87.3-67.7c5.4-5.7,11-11.3,14-19.3c-1.7-0.5-2.7-1.2-3.8-1.2
			c-14.8-0.4-29.5-0.7-44.3-0.9c-8.7-0.1-14.8,2.9-18.9,11.7c-12.4,26.6-28.7,50.7-46.9,73.7C419.6,566,416.9,569.9,414.1,573.7z
			 M64.7,128.1c2.1,0.7,3.9,1.9,5.8,1.9c12.6,0.5,25.2,0.8,37.9,1c9.1,0.2,15-4.2,18.9-12.5c3.7-8,7.7-15.8,12.5-23.2
			c11.2-17.4,23-34.5,34.5-51.7c1.7-2.5,3-5.3,4.7-8.3C157.5,34.7,75.5,101.4,64.7,128.1z M178.6,568.6c0.3-0.5,0.6-1,0.9-1.5
			c-1.7-2.5-3.5-5-5.2-7.5c-10.2-14.6-20.6-28.9-30.4-43.7c-5.5-8.4-9.8-17.6-14.6-26.5c-3-5.6-7.3-9.6-13.9-9.8
			c-13.1-0.3-26.2-0.4-39.4-0.3c-2.4,0-4.8,1.6-7.1,2.5c1.4,2.4,2.3,5.2,4.2,7.1c16,15.9,31.7,32.3,48.6,47.3
			c14.2,12.5,30.6,22.2,47.9,30C172.4,567.3,175.6,567.7,178.6,568.6z"/>
		<path class="st0" d="M272-19c-4.2,0.7-8.4,1.1-12.5,2c-20.4,4.7-41.1,8.4-61.1,14.5c-36.3,10.9-68.9,29.3-97.7,53.9
			c-13.3,11.3-26.1,23.2-38,35.9C28.3,123.7,6,167-7.7,214.9c-5.6,19.6-9.3,39.6-10.2,60c-0.1,1.4-0.7,2.8-1.1,4.1
			c0-99.2,0-198.5,0-298C78-19,175-19,272-19z"/>
		<path class="st0" d="M-19,324c0.7,4.7,1.7,9.3,1.9,14c1.4,24.4,8.9,47.3,15.4,70.6c7.1,25.2,20.8,46.8,34.6,68.5
			c32.1,50.4,75.6,88.2,129,114.3c18.6,9.1,38.9,14.9,58.7,21.2c10.8,3.5,22.2,5,33.3,7.4c0.7,0.2,1.4,0.7,2,1.1
			c-91.6,0-183.2,0-275,0C-19,522-19,423-19,324z"/>
		<path class="st0" d="M621,272c-0.4-0.9-1-1.7-1-2.6c0.5-26.5-7.5-51.2-15.7-75.9c-12.2-36.8-32.9-68.5-56.8-98.6
			c-18-22.7-39.4-41.9-62.8-58.1c-27.2-18.8-57-33.9-89.4-42.5c-12.6-3.4-25.2-6.9-38-9.4c-9.1-1.8-18.5-1.9-27.7-2.8
			c-1.6-0.2-3.1-0.7-4.6-1.1c98.7,0,197.3,0,296,0C621,78,621,175,621,272z"/>
		<path class="st0" d="M316,621c2-0.4,4.1-1.1,6.1-1c41.5,0.7,80.4-9.8,117.6-27.3c34.5-16.3,64.9-38.3,91.4-65.7
			c44.5-46,73.8-100.1,85.7-163.1c1.6-8.6,2.1-17.4,3.2-26.1c0.2-1.2,0.7-2.4,1.1-3.6c0,95.6,0,191.2,0,287
			C519.3,621,417.7,621,316,621z"/>
		<path class="st0" d="M382.9,450.1c-22,0-44-0.1-66,0.1c-3.7,0-6.1-0.7-6.3-4.9c-0.1-2.1-0.8-4.2-0.8-6.4c0-18.2-0.2-36.3,0.1-54.5
			c0.4-18.8,1.2-37.5,1.9-56.3c0.1-2,0.6-3.9,0.7-5.9c0.6-9.4,0.6-9.4,10.3-9.4c49-0.3,97.9-0.6,146.9-0.9c0.3,0,0.7,0,1,0
			c8.8,0.1,10.7,1.6,10.2,10.5c-0.9,14.7-1.7,29.5-4.1,44c-3.2,19.4-7.4,38.6-11.9,57.7c-1.7,7.3-5.1,14.3-8,21.3
			c-1.4,3.6-4.1,4.8-8.2,4.8C426.9,450,404.9,450.1,382.9,450.1z"/>
		<path class="st0" d="M284.2,313.1c0,6.4,0,12.3,0,18.3c0,34.1,0.1,68.3-0.2,102.4c0,5.2-1.4,10.4-2.6,15.6
			c-0.3,1.2-2.5,2.7-3.8,2.7c-34.3,0.1-68.6,0.1-102.9,0c-7.3,0-14.6-0.9-21.9-0.7c-6.5,0.2-11-2.2-12.8-8.5
			c-4.2-14.2-9.3-28.3-11.9-42.9c-4.1-22.8-6.4-45.8-9.4-68.8c-0.5-3.6-0.8-7.3-0.8-10.9c0.1-5.5,1.7-7.1,7.2-7.4
			c5-0.2,10-0.1,15-0.2c22-0.3,43.9-0.8,65.9-0.8c24.8,0,49.6,0.5,74.4,0.8C281.4,312.8,282.3,312.9,284.2,313.1z"/>
		<path class="st0" d="M313.1,157c1.8-0.1,3.4-0.2,5-0.2c44.8,0,89.6,0,134.5-0.1c3.8,0,5.4,1.1,6.7,4.6
			c8.2,21.3,12.4,43.5,15.8,65.9c2,13.4,3.3,26.9,4.9,40.4c1.5,12.7-1.5,16.2-14.8,16.4c-34,0.5-67.9,1-101.9,0.9
			c-15.1,0-30.2-1.2-45.3-1.9c-4.2-0.2-6.4-1.5-6.4-6.6c0.3-30.3,0.1-60.6,0.3-91C312,176.2,312.7,166.8,313.1,157z"/>
		<path class="st0" d="M203.5,284.2c-24.5,0-49,0-73.4,0c-0.7,0-1.3,0-2,0c-9.7-0.3-10.9-2.2-9.7-11.9c1.4-11.3,2-22.8,3.5-34.1
			c3.3-24.1,7.4-48,15.9-70.9c0.6-1.6,1.3-3,1.9-4.6c1.6-4.2,4.2-5.9,9.1-6c37.6-0.1,75.2-0.5,112.8-0.8c5.8,0,11.6,0.5,17.4,1
			c3.1,0.2,5.7,1,5.7,5.2c-0.1,4.3,0.6,8.6,0.6,12.9c0,18.8,0.1,37.6-0.1,56.5c-0.2,16.1-0.8,32.3-0.8,48.4c0,4.3-2.2,4.3-5.3,4.3
			C253.8,284.1,228.6,284.1,203.5,284.2C203.5,284.2,203.5,284.2,203.5,284.2z"/>
		<path class="st0" d="M487,450.1c1-6.5,1.2-12.4,3-17.7c7-20.8,10.1-42.4,12.9-64c2.1-16.6,4-33.2,5.9-49.8c0.6-5,3.5-7.5,8.2-7.6
			c24.4-0.2,48.8-0.2,73.2-0.3c5.1,0,6.5,2.9,6,7.1c-1.8,15.4-3.2,31-6.1,46.2c-4.3,22.2-11,43.9-20.8,64.4
			c-0.8,1.6-1.7,3.2-2.5,4.8c-5.2,10.2-12.2,17.4-24.9,17.1C524,449.8,506.2,450.1,487,450.1z"/>
		<path class="st0" d="M287.1,60.5c0,14.2,0.2,28.3-0.1,42.5c-0.1,6.6-1.1,13.2-1.6,19.8c-0.3,3.4-2.2,4.4-5.3,4.5
			c-23.1,0.7-46.2,1.6-69.3,2.1c-16.8,0.3-33.5,0-50.3-0.1c-6.2,0-7.1-1.3-4.8-7.2c7.4-18.3,18-34.7,29.9-50.3
			c12.5-16.4,27.3-30.5,44.1-42.3c12.7-8.9,26.4-15.9,41.5-19.7c4.1-1,8.8-0.2,13.1,0.5c1.2,0.2,2.6,3.1,2.7,4.8
			C287.3,30.2,287.2,45.3,287.1,60.5C287.2,60.5,287.2,60.5,287.1,60.5z"/>
		<path class="st0" d="M51.5,311.3c10.3,0.5,20.6,1.1,30.9,1.4c4.9,0.1,7.3,2.5,7.8,7.2c1.3,12,2.5,24,4.1,36
			c3.7,28,8.3,55.9,16.4,83c0.1,0.5,0.4,0.9,0.5,1.4c2.9,9.5,2.2,10.6-7.7,11c-13.3,0.5-26.6,0.6-39.9,0.9
			c-10.9,0.2-18.5-4.2-24-14.3c-14.4-26.8-22.9-55.5-28.6-85.2c-1.8-9.6-2.6-19.4-3-29.1c-0.4-8.9,1.7-10.7,10.7-10.8
			c11-0.1,21.9,0,32.9,0C51.5,312.3,51.5,311.8,51.5,311.3z"/>
		<path class="st0" d="M375.1,476.9c14.2,0,28.3-0.2,42.5,0.1c6.9,0.1,13.9,1.3,20.8,1.7c3.9,0.2,4.8,2.1,3.1,5.2
			c-6,11.4-11.4,23.3-18.5,33.9c-16.7,25-37.1,46.5-63,62.2c-13.2,8-27.4,13.1-42.9,14.2c-6.2,0.4-7.2-0.5-7.2-6.6
			c-0.1-29.1,0-58.2,0.1-87.3c0-5,0.7-9.9,0.9-14.9c0.2-4.9,2.3-7.5,7.4-7.6c6-0.2,11.9-0.9,17.9-1
			C349.1,476.7,362.1,476.8,375.1,476.9C375.1,476.8,375.1,476.8,375.1,476.9z"/>
		<path class="st0" d="M552.9,285.9c-12.9-0.9-25.8-1.8-38.7-2.7c-3.6-0.2-6-1.8-6.5-5.6c-0.9-6.9-2.6-13.7-2.7-20.6
			c-0.2-22-5.3-43.3-9.9-64.6c-2-9.5-5.2-18.7-8.1-28c-1.7-5.5-0.5-8.1,5.3-8.3c19.4-0.9,38.8-1.5,58.2-2.1
			c5.3-0.2,8.3,3.4,10.8,7.5c9.6,15.6,15.8,32.7,21.3,50.1c6.6,20.8,12.2,41.9,12.7,64c0.1,3.4-0.5,6.4-4.2,7.5
			c-2.2,0.6-4.6,1.1-6.8,1.1c-10.5,0.1-20.9,0.1-31.4,0.1C552.9,284.8,552.9,285.3,552.9,285.9z"/>
		<path class="st0" d="M444.7,127c-4.6,0.5-8.2,1.1-11.8,1.1c-27.5,0.4-54.9,0.8-82.4,0.9c-10.3,0-20.5-1.1-30.8-1.5
			c-5.9-0.2-7-3.7-6.9-8.6c0.1-16.8-0.2-33.6,0.1-50.5c0.3-16.4,1.1-32.9,2-49.3c0.5-9.6,4-12.3,13.2-9.5
			c18.9,5.7,36.1,15,51.5,27.4c28.2,22.6,47.8,51.8,63,84.1C443.4,122.9,443.8,124.6,444.7,127z"/>
		<path class="st0" d="M78.6,155.3c9.6,0.5,19.2,0.9,28.8,1.6c3.7,0.3,5.3,2,4.1,6.5c-4.1,15.1-8.1,30.3-11.2,45.6
			c-2.9,14.6-4.8,29.4-6.9,44.1c-1,7.5-1,15.2-2.2,22.7c-1.3,8.3-2.9,9.8-11.9,10.2c-19.1,0.7-38.3,0.8-57.4,1.1
			c-2.3,0-4.9,0-6.8-1.1c-2.2-1.2-5.1-3.5-5.2-5.5c-0.5-9.6-1.3-19.4,0.2-28.7c4.3-26.9,13.9-52.2,24.5-77.2
			c5.8-13.7,15.1-20.8,30.5-18.9c4.4,0.6,9,0.1,13.5,0.1C78.6,155.6,78.6,155.5,78.6,155.3z"/>
		<path class="st0" d="M281.5,590.9c-14.5,3.6-26.6-1.2-38.1-7.7c-22.9-13-41.8-30.6-57.7-51.4c-7.9-10.3-14.4-21.8-21.5-32.8
			c-2.3-3.6-4.6-7.3-7-10.9c-3.1-4.8-1.7-8,3.8-8.3c8.1-0.4,16.3-0.8,24.4-1c28.8-0.7,57.5-1.3,86.3-2c1.7,0,3.3-0.1,5,0
			c3.3,0.2,5.5,1.9,5.5,5.2c0.2,19.4,0.3,38.9,0.3,58.3c0,12.3-0.2,24.6-0.3,37C282.1,581.8,281.7,586.2,281.5,590.9z"/>
		<path class="st0" d="M538.8,126.9c-3.6,0.6-6,1.3-8.4,1.3c-15.6,0.1-31.3,0.3-46.9-0.1c-2.6-0.1-6.3-2-7.6-4.2
			c-7.8-12.5-14.5-25.7-22.5-38.1c-10.6-16.2-22.1-31.9-33.2-47.8c-1.8-2.5-3.2-5.3-4.2-8.7c24,11.2,47.6,22.6,68,39.8
			C504.2,86.1,523.2,104.2,538.8,126.9z"/>
		<path class="st0" d="M414.1,573.7c2.8-3.8,5.5-7.6,8.4-11.3c18.2-23,34.5-47.1,46.9-73.7c4.1-8.8,10.2-11.8,18.9-11.7
			c14.8,0.2,29.5,0.5,44.3,0.9c1.1,0,2.1,0.6,3.8,1.2c-3,8-8.6,13.6-14,19.3c-25.6,27.1-53.9,50.7-87.3,67.7
			c-5.6,2.8-11.2,5.6-16.8,8.3c-1,0.5-2.3,0.3-3.4,0.5C414.6,574.5,414.4,574.1,414.1,573.7z"/>
		<path class="st0" d="M64.7,128.1c10.8-26.6,92.8-93.4,114.2-92.7c-1.7,3-3,5.8-4.7,8.3c-11.5,17.3-23.3,34.3-34.5,51.7
			c-4.7,7.4-8.8,15.2-12.5,23.2c-3.8,8.3-9.8,12.7-18.9,12.5c-12.6-0.2-25.2-0.6-37.9-1C68.6,129.9,66.8,128.8,64.7,128.1z"/>
		<path class="st0" d="M178.6,568.6c-3-0.8-6.2-1.3-9-2.6c-17.3-7.8-33.8-17.4-47.9-30c-16.9-15-32.5-31.4-48.6-47.3
			c-1.9-1.9-2.8-4.7-4.2-7.1c2.4-0.9,4.7-2.5,7.1-2.5c13.1-0.1,26.2,0,39.4,0.3c6.6,0.2,10.9,4.1,13.9,9.8
			c4.8,8.9,9.1,18.1,14.6,26.5c9.7,14.8,20.2,29.2,30.4,43.7c1.8,2.5,3.5,5,5.2,7.5C179.3,567.6,179,568.1,178.6,568.6z"/>
	</g>
</g>
</svg>
